<svg id="Layer_1" enable-background="new 0 0 100 100" viewBox="0 0 100 100" xmlns="http://www.w3.org/2000/svg" xmlns:xlink="http://www.w3.org/1999/xlink"><filter id="Adobe_OpacityMaskFilter" filterUnits="userSpaceOnUse" height="58.1" width="66.2" x="17" y="21.5"><feColorMatrix type="matrix" values="1 0 0 0 0  0 1 0 0 0  0 0 1 0 0  0 0 0 1 0"/></filter><linearGradient id="path-2_7_" gradientTransform="matrix(60 0 0 -60 -17169 44901)" gradientUnits="userSpaceOnUse" x1="286.983" x2="286.983" y1="748.266" y2="746.767"><stop offset="0" stop-color="#19e6ff"/><stop offset="1" stop-color="#1e51ee"/></linearGradient><mask id="mask-3_1_" height="58.1" maskUnits="userSpaceOnUse" width="66.2" x="17" y="21.5"><g filter="url(#Adobe_OpacityMaskFilter)"><path id="path-2_2_" d="m63.6 5c9 0 13.5 0 18.4 1.5 5.3 1.9 9.5 6.1 11.4 11.4 1.6 4.9 1.6 9.5 1.6 18.5v27.2c0 9 0 13.5-1.5 18.4-1.9 5.3-6.1 9.5-11.4 11.4-5 1.6-9.5 1.6-18.5 1.6h-27.2c-9 0-13.5 0-18.4-1.5-5.4-2-9.5-6.1-11.5-11.5-1.5-4.8-1.5-9.3-1.5-18.4v-27.2c0-9 0-13.5 1.5-18.4 2-5.3 6.1-9.5 11.5-11.4 4.8-1.6 9.3-1.6 18.4-1.6z" fill="#fff"/></g></mask><g id="Symbols"><path id="path-2_1_" d="m63.6 5c9 0 13.5 0 18.4 1.5 5.3 1.9 9.5 6.1 11.4 11.4 1.6 4.9 1.6 9.5 1.6 18.5v27.2c0 9 0 13.5-1.5 18.4-1.9 5.3-6.1 9.5-11.4 11.4-5 1.6-9.5 1.6-18.5 1.6h-27.2c-9 0-13.5 0-18.4-1.5-5.4-2-9.5-6.1-11.5-11.5-1.5-4.8-1.5-9.3-1.5-18.4v-27.2c0-9 0-13.5 1.5-18.4 2-5.3 6.1-9.5 11.5-11.4 4.8-1.6 9.3-1.6 18.4-1.6z" fill="url(#path-2_7_)"/><path id="Icon" d="m25.3 68.3c.1-.2.3-.3.5-.4.8-.2 1.6-.4 2.4-.4 2.2 0 4.2.8 5.8 2.2.2.2.2.5.1.7l-4.1 7c-.8 1.4-2.3 2.2-3.8 2.2-.9 0-1.8-.3-2.6-.9-1.8-1.3-2.2-3.9-1.1-5.8zm53.3-10.7c2.3 0 4.3 1.7 4.5 3.9.2 2.6-1.8 4.8-4.3 4.8h-5.3l3.9 6.7c1.1 1.9.7 4.5-1.1 5.8-.8.6-1.7.9-2.6.9-1.5 0-3-.8-3.8-2.2l-9.4-16.3-7.4-12.8c-.1-.1-.1-.2-.1-.4 0-.5-.1-1-.1-1.5 0-3.5.8-7 2.4-9.8.2-.3.7-.3.9 0l12.2 20.8h10.2zm-23 .2c2.2 1.3 3.6 3.8 3.6 6.6 0 .6-.1 1.1-.2 1.7 0 .1-.2.2-.3.2h-14-23.3c-2.5 0-4.6-2.2-4.3-4.8.2-2.3 2.2-3.9 4.5-3.9h9.9l13.5-23.2-3.7-6.3c-1.3-2.2-.4-5.1 2-6.1 2.1-.9 4.5 0 5.7 1.9l1.1 1.9 1.2-2c1.3-2.2 4.2-2.9 6.3-1.4 1.9 1.3 2.3 3.9 1.1 5.9l-17.2 29.3h7 6.4c.3 0 .5.1.7.2z" fill="#fff" mask="url(#mask-3_1_)"/></g></svg>