<svg id="Capa_1" enable-background="new 0 0 512.001 512.001" height="512" viewBox="0 0 512.001 512.001" width="512" xmlns="http://www.w3.org/2000/svg"><g><path d="m231.315 313.097c3.268 0 6.5.246 9.685.735v-42.832h-76.151v-23.429c3.152-5.821 4.055-11.612 4.055-16.256 0-18.418-14.984-33.403-33.403-33.403-18.418 0-33.402 14.984-33.402 33.403 0 4.644 1.236 10.519 4.055 16.255v23.43h-106.154v241h241v-72.833c-3.185.49-6.416.736-9.685.736-34.961 0-63.403-28.442-63.403-63.403s28.443-63.403 63.403-63.403z"/><path d="m313.097 280.685c0-3.268.246-6.5.735-9.685h-42.832v76.151h-23.429c-5.821-3.152-11.612-4.055-16.256-4.055-18.418 0-33.403 14.984-33.403 33.403 0 18.418 14.984 33.402 33.403 33.402 4.644 0 10.519-1.236 16.255-4.055h23.43v106.152h241v-241h-72.833c.49 3.185.736 6.416.736 9.685 0 34.961-28.442 63.403-63.403 63.403s-63.403-28.44-63.403-63.401z"/><path d="m280.685 198.904c-3.268 0-6.5-.246-9.685-.735v42.831h76.151v23.429c-3.152 5.821-4.055 11.612-4.055 16.256 0 18.418 14.984 33.403 33.403 33.403 18.418 0 33.402-14.984 33.402-33.403 0-4.644-1.236-10.519-4.055-16.255v-23.43h106.152v-241h-241v72.833c3.185-.49 6.416-.736 9.685-.736 34.961 0 63.403 28.442 63.403 63.403s-28.44 63.404-63.401 63.404z"/><path d="m198.904 231.315c0 3.268-.246 6.5-.735 9.685h42.831v-76.151h23.429c5.821 3.152 11.612 4.055 16.256 4.055 18.418 0 33.403-14.984 33.403-33.403 0-18.418-14.984-33.402-33.403-33.402-4.644 0-10.519 1.236-16.255 4.055h-23.43v-106.154h-241v241h72.833c-.49-3.185-.736-6.416-.736-9.685 0-34.961 28.442-63.403 63.403-63.403s63.404 28.443 63.404 63.403z"/></g></svg>