<svg id="Capa_1" enable-background="new 0 0 426.792 426.792" height="512" viewBox="0 0 426.792 426.792" width="512" xmlns="http://www.w3.org/2000/svg"><path id="path1240" d="m61.75 0c-33.795 0-61.75 27.955-61.75 61.75v66.292h426.792v-66.292c0-33.795-27.955-61.75-61.75-61.75zm222.667 42.709h57c11.782.046 21.296 9.634 21.25 21.416-.046 11.717-9.533 21.204-21.25 21.25h-57c-11.717-.046-21.204-9.533-21.25-21.25-.046-11.782 9.468-21.37 21.25-21.416zm-284.417 128v194.333c0 33.795 27.955 61.75 61.75 61.75h303.292c33.795 0 61.75-27.955 61.75-61.75v-194.333zm213.375 49.791c11.782.046 21.296 9.634 21.25 21.416v99.5c-.023 11.733-9.517 21.246-21.25 21.292-11.782.046-21.37-9.468-21.417-21.25 0-.014 0-.028 0-.042v-99.5c-.046-11.782 9.468-21.37 21.25-21.417.056.001.112.001.167.001zm-85.333 42.667c11.782-.046 21.371 9.468 21.417 21.25v.167 56.833c-.023 11.782-9.593 21.315-21.375 21.292-.014 0-.028 0-.042 0-11.733-.046-21.227-9.558-21.25-21.292v-56.833c-.046-11.782 9.468-21.371 21.25-21.417zm170.708 0c11.782.046 21.296 9.634 21.25 21.416v56.833c-.023 11.733-9.517 21.246-21.25 21.292-11.782.046-21.37-9.468-21.417-21.25 0-.014 0-.028 0-.042v-56.832c-.046-11.782 9.468-21.37 21.25-21.417z"/></svg>