<svg id="Glyph" height="512" viewBox="0 0 64 64" width="512" xmlns="http://www.w3.org/2000/svg"><path d="m59 19.43h-8.92l-17.42-15.18a1.002 1.002 0 0 0 -1.31-.01l-17.65 15.19h-8.7a1.003 1.003 0 0 0 -1 1v38.57a1.003 1.003 0 0 0 1 1h32v-9a1.003 1.003 0 0 1 1-1h12a1.003 1.003 0 0 1 1 1v9h8a1.003 1.003 0 0 0 1-1v-38.57a1.003 1.003 0 0 0 -1-1zm-27-13.11 15.04 13.11h-30.27zm-8.28 30.32h-11.72a1.0001 1.0001 0 0 1 0-2h11.72a1.00011 1.00011 0 0 1 0 2zm3.71-7.64h-15.43a1.00012 1.00012 0 0 1 0-2h15.43a1.00012 1.00012 0 0 1 0 2z"/><path d="m39 52h10v8h-10z"/></svg>